# xmcd
#
# Track frame offsets:
# 150
# 14837
# 27977
# 45954
# 59140
# 74628
# 88976
# 106569
# 117010
# 127879
# 144404
# 162854
# 174211
# 184445
# 196423
# 208087
# 228053
#
# Disc length: 3256 seconds
#
# Revision: 0
# Processed by: cddbd v1.5.1PL0 Copyright (c) Steve Scherf et al.
# Submitted via: Axialis_AX_CDPlayer 2.6
#
DISCID=ec0cb611
DTITLE=Freddy Della - Country
DYEAR=1900
DGENRE=
TTITLE0=Horse ballad
TTITLE1=Orange Blossom Special
TTITLE2=The city of News Orleans
TTITLE3=Sandra's song
TTITLE4=Tu peux préparer le café noir
TTITLE5=Cotton eyes Jo
TTITLE6=Blue stay way for me
TTITLE7=Suzana
TTITLE8=Si j'étais un charpentier
TTITLE9=Jambalaya
TTITLE10=J'ai oublié de vivre
TTITLE11=Boston
TTITLE12=Queen Charlotte
TTITLE13=Landy miss Claudy
TTITLE14=Rock medley
TTITLE15=L' Homme à l'armonica
TTITLE16=La dernière seance
EXTD=
EXTT0=
EXTT1=
EXTT2=
EXTT3=
EXTT4=
EXTT5=
EXTT6=
EXTT7=
EXTT8=
EXTT9=
EXTT10=
EXTT11=
EXTT12=
EXTT13=
EXTT14=
EXTT15=
EXTT16=
PLAYORDER=
